<svg width="107" height="34" viewBox="0 0 107 34" fill="none" xmlns="http://www.w3.org/2000/svg">
<g clip-path="url(#clip0)">
<path d="M56.3923 8.54254C56.3923 9.76777 55.4229 10.7548 54.2195 10.7548C53.0161 10.7548 52.0468 9.76777 52.0468 8.54254C52.0468 7.31732 52.9827 6.33033 54.2195 6.33033C55.4563 6.36436 56.3923 7.35135 56.3923 8.54254ZM47.4338 13.001C47.4338 13.2052 47.4338 13.5455 47.4338 13.5455C47.4338 13.5455 46.3976 12.1842 44.1914 12.1842C40.5478 12.1842 37.7065 15.009 37.7065 18.9229C37.7065 22.8028 40.5144 25.6617 44.1914 25.6617C46.431 25.6617 47.4338 24.2663 47.4338 24.2663V24.8448C47.4338 25.1171 47.6344 25.3213 47.9018 25.3213H50.6094V12.5245C50.6094 12.5245 48.1358 12.5245 47.9018 12.5245C47.6344 12.5245 47.4338 12.7628 47.4338 13.001ZM47.4338 21.2032C46.9324 21.952 45.9296 22.5986 44.7262 22.5986C42.5869 22.5986 40.949 21.2372 40.949 18.9229C40.949 16.6086 42.5869 15.2472 44.7262 15.2472C45.8962 15.2472 46.9658 15.9279 47.4338 16.6426V21.2032ZM52.615 12.5245H55.824V25.3213H52.615V12.5245ZM100.549 12.1842C98.3432 12.1842 97.307 13.5455 97.307 13.5455V6.36436H94.098V25.3213C94.098 25.3213 96.5716 25.3213 96.8056 25.3213C97.073 25.3213 97.2736 25.0831 97.2736 24.8448V24.2663C97.2736 24.2663 98.3098 25.6617 100.516 25.6617C104.16 25.6617 107.001 22.8028 107.001 18.9229C107.001 15.043 104.16 12.1842 100.549 12.1842ZM100.015 22.5646C98.7778 22.5646 97.8084 21.9179 97.307 21.1692V16.6086C97.8084 15.9279 98.8781 15.2132 100.015 15.2132C102.154 15.2132 103.792 16.5746 103.792 18.8889C103.792 21.2032 102.154 22.5646 100.015 22.5646ZM92.4266 17.7317V25.3554H89.2176V18.1061C89.2176 15.996 88.5491 15.1451 86.744 15.1451C85.7747 15.1451 84.7718 15.6557 84.1367 16.4044V25.3213H80.9277V12.5245H83.4682C83.7356 12.5245 83.9362 12.7628 83.9362 13.001V13.5455C84.8721 12.5586 86.1089 12.1842 87.3457 12.1842C88.7497 12.1842 89.9196 12.5926 90.8556 13.4094C91.9921 14.3624 92.4266 15.5876 92.4266 17.7317ZM73.1392 12.1842C70.933 12.1842 69.8968 13.5455 69.8968 13.5455V6.36436H66.6878V25.3213C66.6878 25.3213 69.1614 25.3213 69.3954 25.3213C69.6628 25.3213 69.8634 25.0831 69.8634 24.8448V24.2663C69.8634 24.2663 70.8996 25.6617 73.1058 25.6617C76.7493 25.6617 79.5906 22.8028 79.5906 18.9229C79.6241 15.043 76.7828 12.1842 73.1392 12.1842ZM72.6044 22.5646C71.3676 22.5646 70.3982 21.9179 69.8968 21.1692V16.6086C70.3982 15.9279 71.4679 15.2132 72.6044 15.2132C74.7437 15.2132 76.3816 16.5746 76.3816 18.8889C76.3816 21.2032 74.7437 22.5646 72.6044 22.5646ZM63.9134 12.1842C64.8827 12.1842 65.3842 12.3544 65.3842 12.3544V15.3834C65.3842 15.3834 62.71 14.4645 61.0386 16.4044V25.3554H57.8296V12.5245C57.8296 12.5245 60.3032 12.5245 60.5372 12.5245C60.8046 12.5245 61.0052 12.7628 61.0052 13.001V13.5455C61.6069 12.8308 62.9105 12.1842 63.9134 12.1842ZM30.5866 24.1642C30.4195 23.7558 30.2523 23.3133 30.0852 22.9389C29.8178 22.3263 29.5503 21.7477 29.3164 21.2032L29.2829 21.1692C26.9765 16.0641 24.5029 10.8909 21.8956 5.78579L21.7953 5.58158C21.5279 5.07107 21.2604 4.52653 20.993 3.98198C20.6588 3.36937 20.3245 2.72272 19.7896 2.11011C18.72 0.748749 17.1823 0 15.5444 0C13.8731 0 12.3688 0.748749 11.2658 2.04204C10.7643 2.65465 10.3966 3.3013 10.0624 3.91391C9.79496 4.45846 9.52754 5.003 9.26013 5.51351L9.15985 5.71772C6.58596 10.8228 4.07893 15.996 1.77247 21.1011L1.73904 21.1692C1.50505 21.7137 1.23763 22.2923 0.970217 22.9049C0.803082 23.2793 0.635946 23.6877 0.468811 24.1301C0.0342595 25.3894 -0.0994487 26.5806 0.0676866 27.8058C0.435384 30.3584 2.10674 32.5025 4.4132 33.4555C5.28231 33.8298 6.18484 34 7.12079 34C7.38821 34 7.72248 33.966 7.9899 33.9319C9.09299 33.7958 10.2295 33.4214 11.3326 32.7748C12.7031 31.992 14.0068 30.8689 15.4776 29.2352C16.9483 30.8689 18.2854 31.992 19.6225 32.7748C20.7256 33.4214 21.8621 33.7958 22.9652 33.9319C23.2326 33.966 23.5669 34 23.8343 34C24.7703 34 25.7062 33.8298 26.5419 33.4555C28.8818 32.5025 30.5197 30.3243 30.8874 27.8058C31.1548 26.6146 31.0211 25.4234 30.5866 24.1642ZM15.511 25.9339C13.7059 23.6196 12.536 21.4414 12.1349 19.6036C11.9677 18.8208 11.9343 18.1401 12.0346 17.5275C12.1014 16.983 12.302 16.5065 12.5694 16.0981C13.2045 15.1792 14.2742 14.6006 15.511 14.6006C16.7478 14.6006 17.8509 15.1451 18.4526 16.0981C18.72 16.5065 18.9205 16.983 18.9874 17.5275C19.0877 18.1401 19.0543 18.8549 18.8871 19.6036C18.486 21.4074 17.316 23.5856 15.511 25.9339ZM28.8484 27.5335C28.6144 29.3033 27.4444 30.8348 25.8065 31.5155C25.0043 31.8559 24.1352 31.958 23.2661 31.8559C22.4304 31.7538 21.5947 31.4815 20.7256 30.971C19.5222 30.2903 18.3189 29.2352 16.9149 27.6697C19.1211 24.9129 20.4582 22.3944 20.9596 20.1481C21.1936 19.0931 21.227 18.1401 21.1267 17.2553C20.993 16.4044 20.6922 15.6216 20.2242 14.9409C19.188 13.4094 17.4498 12.5245 15.511 12.5245C13.5722 12.5245 11.834 13.4434 10.7978 14.9409C10.3298 15.6216 10.0289 16.4044 9.89524 17.2553C9.76153 18.1401 9.79496 19.1271 10.0624 20.1481C10.5638 22.3944 11.9343 24.9469 14.107 27.7037C12.7365 29.2693 11.4997 30.3243 10.2964 31.005C9.42726 31.5155 8.59159 31.7878 7.75591 31.8899C6.85338 31.992 5.98428 31.8559 5.21545 31.5495C3.57753 30.8689 2.40758 29.3373 2.17359 27.5676C2.07331 26.7167 2.14016 25.8659 2.47443 24.9129C2.57472 24.5726 2.74185 24.2322 2.90899 23.8238C3.14298 23.2793 3.41039 22.7007 3.67781 22.1221L3.71124 22.0541C6.0177 16.983 8.4913 11.8098 11.0652 6.77277L11.1655 6.56857C11.4329 6.05806 11.7003 5.51351 11.9677 5.003C12.2351 4.45846 12.536 3.94795 12.9037 3.50551C13.6056 2.68869 14.5416 2.24625 15.5778 2.24625C16.6141 2.24625 17.55 2.68869 18.252 3.50551C18.6197 3.94795 18.9205 4.45846 19.188 5.003C19.4554 5.51351 19.7228 6.05806 19.9902 6.56857L20.0905 6.77277C22.6309 11.8438 25.1045 17.017 27.411 22.0881V22.1221C27.6784 22.6667 27.9124 23.2793 28.1798 23.8238C28.347 24.2322 28.5141 24.5726 28.6144 24.9129C28.8818 25.7978 28.9821 26.6486 28.8484 27.5335Z" fill="#9CA9BA"/>
</g>
<defs>
<clipPath id="clip0">
<rect width="107" height="34" fill="white"/>
</clipPath>
</defs>
</svg>
