<svg width="111" height="42" viewBox="0 0 111 42" fill="none" xmlns="http://www.w3.org/2000/svg">
<g clip-path="url(#clip0)">
<path d="M30.8516 14.4829L24.4004 12.3105V2.8967L30.8594 4.82774L30.8516 14.4829Z" fill="#9BA4B5"/>
<path d="M32.5342 4.82774L38.9932 2.8967L38.9707 12.304L32.5342 14.4829V4.82774Z" fill="#9BA4B5"/>
<path d="M37.678 1.87705L31.6582 -0.000153206L25.7168 1.87705L31.6668 3.48633L37.678 1.87705Z" fill="#9BA4B5"/>
<path d="M47.1191 14.4829L40.668 12.3105V2.8967L47.127 4.82774L47.1191 14.4829Z" fill="#9BA4B5"/>
<path d="M48.8018 4.82774L55.2608 2.8967L55.2383 12.304L48.8018 14.4829V4.82774Z" fill="#9BA4B5"/>
<path d="M53.9446 1.87705L47.9248 -0.000153206L41.9834 1.87705L47.9334 3.48633L53.9446 1.87705Z" fill="#9BA4B5"/>
<path d="M6.45905 18.586L0 16.655V26.0688L6.45121 28.2412L6.45905 18.586Z" fill="#9BA4B5"/>
<path d="M8.13379 18.586L14.5928 16.655L14.5704 26.0625L8.13379 28.2412V18.586Z" fill="#9BA4B5"/>
<path d="M13.2766 15.6358L7.25678 13.7586L1.31543 15.6358L7.26548 17.2451L13.2766 15.6358Z" fill="#9BA4B5"/>
<path d="M22.7188 28.2412L16.2676 26.0688V16.655L22.7266 18.586L22.7188 28.2412Z" fill="#9BA4B5"/>
<path d="M24.4004 18.586L30.8594 16.655L30.837 26.0625L24.4004 28.2412V18.586Z" fill="#9BA4B5"/>
<path d="M29.5442 15.6358L23.5244 13.7586L17.583 15.6358L23.5331 17.2451L29.5442 15.6358Z" fill="#9BA4B5"/>
<path d="M14.585 42L8.13379 39.8276V30.4138L14.5928 32.3448L14.585 42Z" fill="#9BA4B5"/>
<path d="M16.2676 32.3448L22.7266 30.4138L22.7042 39.8213L16.2676 42V32.3448Z" fill="#9BA4B5"/>
<path d="M21.4104 29.3946L15.3906 27.5174L9.44922 29.3946L15.3993 31.0039L21.4104 29.3946Z" fill="#9BA4B5"/>
<path d="M43.1541 33.6787L42.6794 33.6804C42.5053 33.6804 42.2833 33.7991 42.2287 33.9915L40.7889 39.11L39.3648 34.0027C39.3219 33.8425 39.1724 33.6804 38.9691 33.6804H38.4071C38.2048 33.6804 38.0572 33.8447 38.0162 34.006L36.6914 39.0602L35.3226 33.9903C35.2685 33.8049 35.041 33.6804 34.8626 33.6804L34.1796 33.6792C34.0336 33.6792 33.898 33.7424 33.8253 33.8442C33.776 33.9133 33.7624 33.9915 33.7851 34.0596L35.8998 41.6137C35.9465 41.7726 36.0828 41.9326 36.2823 41.9326H36.9615C37.145 41.9326 37.3057 41.7977 37.3522 41.6063L38.6538 36.5743L40.0702 41.612C40.1128 41.7663 40.2499 41.9326 40.4503 41.9326H41.1185C41.3044 41.9326 41.4608 41.8023 41.5068 41.6114L43.5423 34.0627C43.5662 33.99 43.5524 33.9092 43.5038 33.8411C43.4323 33.7409 43.2983 33.6787 43.1541 33.6787" fill="#9BA9B9"/>
<path d="M49.0259 36.8858H45.438C45.5205 35.8698 46.1743 34.8164 47.2819 34.7759C48.4606 34.8147 48.9998 35.844 49.0259 36.8858ZM47.2793 33.6245C44.8557 33.6245 43.752 35.7865 43.752 37.795C43.752 40.3018 45.1241 41.9214 47.2477 41.9214C48.7675 41.9214 49.9261 41.1466 50.4266 39.7929C50.4533 39.7155 50.445 39.6315 50.4031 39.5561C50.3522 39.4647 50.2555 39.3957 50.1412 39.3703L49.4685 39.2405C49.2878 39.2119 49.0809 39.3199 49.0125 39.4765C48.6857 40.2286 48.0901 40.6554 47.3425 40.6776C46.6231 40.6552 45.9626 40.224 45.66 39.5798C45.4141 39.0536 45.3777 38.5349 45.3737 38.0075L50.2445 38.0058C50.3467 38.0058 50.4524 37.9604 50.527 37.8841C50.5895 37.8208 50.6234 37.7422 50.6227 37.6635C50.6108 35.7108 49.7263 33.6245 47.2793 33.6245" fill="#9BA9B9"/>
<path d="M56.6154 37.8068C56.6154 38.2693 56.5324 40.5786 54.9064 40.6377C54.3615 40.6167 53.8108 40.2935 53.5031 39.8156C53.2766 39.4542 53.1443 38.9546 53.1103 38.3364V36.9777C53.1369 35.9369 53.8629 34.7947 54.9011 34.7505C56.5327 34.8154 56.6154 37.3076 56.6154 37.8068ZM55.1614 33.5542H55.0325C54.228 33.5542 53.5957 33.8914 53.1103 34.5825L53.1096 31.398C53.1096 31.2191 52.9266 31.0562 52.7244 31.0562H52.024C51.841 31.0562 51.6362 31.2025 51.6357 31.398V41.339C51.6365 41.5195 51.8195 41.6836 52.0214 41.6836L52.2271 41.6825C52.4214 41.6825 52.5596 41.5245 52.6063 41.3778L52.8254 40.6761C53.3345 41.4055 54.1012 41.834 54.9217 41.834H55.0473C57.2087 41.834 58.1761 39.7128 58.1761 37.6106C58.1761 36.5642 57.9204 35.5637 57.4747 34.8657C56.9597 34.0568 56.0731 33.5542 55.1614 33.5542" fill="#9BA9B9"/>
<path d="M65.8457 37.5833C65.3902 37.2531 64.8426 37.1428 64.294 37.0322L63.2422 36.8355C62.4874 36.7103 62.0506 36.506 62.0506 35.834C62.0506 35.1237 62.7802 34.8521 63.3989 34.8352C64.1543 34.8545 64.7225 35.1946 64.9983 35.7927C65.0639 35.9337 65.2091 36.0285 65.36 36.0285C65.3859 36.0285 65.4122 36.0256 65.4371 36.0202L66.0935 35.8738C66.2007 35.85 66.3007 35.7759 66.3542 35.6795C66.3971 35.603 66.4064 35.5195 66.3808 35.4449C65.9791 34.2643 64.9593 33.6404 63.4166 33.6404C62.0226 33.6435 60.533 34.2689 60.533 36.0157C60.533 37.2096 61.2765 37.9678 62.7443 38.2695L63.9218 38.4959C64.5682 38.6207 65.2292 38.8428 65.2292 39.5431C65.2292 40.5798 64.0335 40.6855 63.6721 40.693C62.8611 40.6754 61.9429 40.3104 61.72 39.5375C61.6753 39.3676 61.4633 39.2474 61.2774 39.2864L60.5909 39.4294C60.4875 39.4513 60.393 39.5191 60.338 39.6107C60.2918 39.687 60.2787 39.7724 60.3 39.8504C60.6542 41.1328 61.8812 41.9061 63.5821 41.9192L63.6199 41.9194C65.139 41.9194 66.7621 41.2631 66.7621 39.4219C66.7621 38.6724 66.4279 38.0023 65.8457 37.5833Z" fill="#9BA9B9"/>
<path d="M72.79 36.893H69.2012C69.2832 35.8761 69.937 34.8222 71.0446 34.7836C72.2228 34.8213 72.7627 35.8504 72.79 36.893ZM71.0427 33.6313C68.6187 33.6313 67.5146 35.7933 67.5146 37.8017C67.5146 40.3083 68.8871 41.9277 71.0109 41.9277C72.5309 41.9277 73.6895 41.1529 74.1904 39.7994C74.217 39.7219 74.2086 39.6377 74.1665 39.5622C74.1156 39.4707 74.0187 39.4016 73.9046 39.3767L73.2309 39.2469C73.0733 39.2211 72.8534 39.3034 72.7759 39.4832C72.4489 40.2349 71.853 40.6616 71.1061 40.6848C70.3861 40.6616 69.7258 40.2305 69.4244 39.5865C69.178 39.0616 69.1414 38.5424 69.1378 38.0137L74.0081 38.0125C74.1096 38.0125 74.2146 37.9674 74.2892 37.8916C74.3519 37.8281 74.3859 37.7494 74.3852 37.6702C74.3739 35.7177 73.4902 33.6313 71.0427 33.6313" fill="#9BA9B9"/>
<path d="M78.9847 33.7234C78.8897 33.7128 78.7983 33.7077 78.7095 33.7077C77.8921 33.7077 77.2283 34.1562 76.7675 35.0129L76.7692 34.2626C76.7685 34.0809 76.5888 33.9213 76.3848 33.9213H75.7764C75.5769 33.9213 75.4008 34.0816 75.3994 34.2655L75.3984 41.5535C75.3984 41.7364 75.5745 41.897 75.7755 41.897L76.4852 41.8967C76.6699 41.8967 76.8778 41.7504 76.8795 41.5535L76.88 37.8792C76.88 37.2733 76.9359 36.8169 77.2228 36.2769C77.6326 35.5077 78.2048 35.1303 78.9722 35.1243C79.1645 35.1229 79.3334 34.9535 79.3334 34.7616V34.0799C79.3334 33.9015 79.1801 33.7449 78.9847 33.7234" fill="#9BA9B9"/>
<path d="M86.437 33.5802L85.8765 33.5805C85.7009 33.5805 85.4758 33.7077 85.4212 33.8943L83.6043 39.6562L81.7489 33.9C81.6941 33.7089 81.4685 33.5805 81.292 33.5805L80.4915 33.5797C80.3447 33.5797 80.2026 33.6458 80.1298 33.7479C80.081 33.8163 80.0676 33.8938 80.0918 33.9661L82.6312 41.5669C82.68 41.7173 82.8094 41.8931 83.0142 41.8931H83.9828C84.1605 41.8931 84.3062 41.771 84.373 41.5663L86.836 33.9686C86.8606 33.8964 86.8475 33.8187 86.7989 33.7501C86.7257 33.647 86.5839 33.5802 86.437 33.5802Z" fill="#9BA9B9"/>
<path d="M88.2779 30.6587C87.7616 30.6587 87.3418 31.0834 87.3418 31.6061C87.3418 32.1286 87.7616 32.5532 88.2779 32.5532C88.7944 32.5532 89.2147 32.1286 89.2147 31.6061C89.2147 31.0834 88.7944 30.6587 88.2779 30.6587Z" fill="#9BA9B9"/>
<path d="M88.6641 33.5338L87.8955 33.533C87.6864 33.533 87.496 33.7037 87.496 33.8907L87.4922 41.6291C87.4922 41.7227 87.54 41.8157 87.6228 41.8847C87.6986 41.9474 87.7955 41.9836 87.8929 41.9836L88.667 41.9849H88.6675C88.8797 41.983 89.066 41.8169 89.066 41.6296V33.8907C89.066 33.7006 88.878 33.5338 88.6641 33.5338Z" fill="#9BA9B9"/>
<path d="M95.8466 38.7814L95.2048 38.7838C95.0256 38.7838 94.8754 38.8925 94.8087 39.0811C94.5742 40.1017 94.0431 40.6306 93.2379 40.654C91.6696 40.6069 91.5478 38.4012 91.5478 37.7263C91.5478 36.3804 92.0098 34.928 93.2994 34.8896C94.0778 34.9137 94.6441 35.4769 94.8139 36.3946C94.846 36.5819 94.9886 36.7236 95.1833 36.7482L95.8701 36.755C96.0753 36.7326 96.2363 36.5759 96.2349 36.3815C95.9919 34.7231 94.8529 33.6511 93.3307 33.6511L93.2781 33.6525L93.2185 33.6511C91.0048 33.6511 90.0137 35.7358 90.0137 37.8018C90.0137 39.696 90.8493 41.9077 93.2061 41.9077H93.319C94.8032 41.9077 95.9234 40.858 96.2442 39.156C96.2514 39.0749 96.2237 38.9938 96.1667 38.9279C96.093 38.8425 95.9756 38.7877 95.8466 38.7814" fill="#9BA9B9"/>
<path d="M102.186 36.893H98.5967C98.6788 35.8758 99.3328 34.8222 100.441 34.7836C101.62 34.8213 102.159 35.8504 102.186 36.893ZM100.439 33.6313C98.0149 33.6313 96.9111 35.7933 96.9111 37.8017C96.9111 40.3083 98.2836 41.9277 100.407 41.9277C101.927 41.9277 103.085 41.1533 103.586 39.7997C103.612 39.7218 103.604 39.6373 103.562 39.5622C103.51 39.47 103.416 39.4026 103.3 39.3767L102.627 39.2469C102.469 39.2211 102.25 39.3034 102.172 39.4832C101.844 40.2349 101.248 40.6616 100.502 40.6851C99.7818 40.6616 99.1218 40.2305 98.8204 39.5865C98.5738 39.0608 98.5372 38.5416 98.5333 38.0137L103.404 38.013C103.507 38.013 103.612 37.9674 103.687 37.8909C103.749 37.8269 103.783 37.7482 103.782 37.6702C103.77 35.7177 102.887 33.6313 100.439 33.6313" fill="#9BA9B9"/>
<path d="M109.883 37.5833C109.427 37.2528 108.878 37.1426 108.331 37.0322L107.279 36.8355C106.525 36.7103 106.088 36.506 106.088 35.834C106.088 34.9177 107.215 34.8412 107.435 34.8352C108.191 34.8545 108.76 35.1946 109.035 35.793C109.101 35.934 109.247 36.0285 109.398 36.0285C109.424 36.0285 109.45 36.0256 109.475 36.0202L110.131 35.8738C110.238 35.85 110.338 35.7756 110.392 35.6793C110.434 35.6028 110.444 35.5195 110.418 35.4449C110.017 34.2643 108.997 33.6404 107.453 33.6404C106.06 33.6435 104.571 34.2689 104.571 36.0157C104.571 37.2099 105.314 37.9681 106.782 38.2695L107.96 38.4959C108.606 38.6207 109.267 38.8428 109.267 39.5431C109.267 40.5798 108.071 40.6855 107.71 40.693C106.958 40.6768 105.996 40.3635 105.758 39.5385C105.714 39.3676 105.503 39.2476 105.314 39.2864L104.628 39.4294C104.524 39.4516 104.43 39.5199 104.375 39.6116C104.329 39.6881 104.316 39.7729 104.337 39.8504C104.691 41.1328 105.917 41.9061 107.618 41.9192L107.656 41.9194C109.176 41.9194 110.799 41.2631 110.799 39.4219C110.799 38.6719 110.465 38.0017 109.883 37.5833" fill="#9BA9B9"/>
<path fill-rule="evenodd" clip-rule="evenodd" d="M78.6373 18.6351V16.8779C78.6383 16.6114 78.8388 16.4325 79.0794 16.4328L86.8817 16.4325C87.1307 16.4325 87.3317 16.6157 87.3317 16.8759V18.3829C87.3293 18.6351 87.1181 18.9649 86.7439 19.4887L82.7027 25.3109C84.2022 25.275 85.7897 25.5016 87.1523 26.2746C87.4602 26.4488 87.542 26.7073 87.5671 26.9598V28.8348C87.5671 29.0933 87.2867 29.3921 86.9925 29.2365C84.5909 27.9669 81.4037 27.8283 78.7476 29.2512C78.4766 29.3972 78.1924 29.103 78.1924 28.8445V27.0628C78.1924 26.7785 78.1981 26.2902 78.4826 25.8553L83.1654 19.0778L79.0888 19.0768C78.8392 19.0768 78.6397 18.8977 78.6373 18.6351" fill="#9BA9B9"/>
<path fill-rule="evenodd" clip-rule="evenodd" d="M50.1764 29.606H47.8021C47.5765 29.5911 47.3959 29.4194 47.3779 29.2004L47.3796 16.9075C47.3796 16.6615 47.5849 16.465 47.8375 16.465L50.0482 16.4638C50.2797 16.4769 50.4649 16.6531 50.4807 16.8766V18.4828H50.5247C51.1003 16.9299 52.1861 16.2068 53.6482 16.2068C55.1326 16.2068 56.0634 16.9299 56.7282 18.4828C57.3048 16.9299 58.6117 16.2068 60.0087 16.2068C61.0058 16.2068 62.0902 16.62 62.755 17.5508C63.5083 18.586 63.3531 20.0854 63.3531 21.4053L63.3516 29.1631C63.3516 29.4083 63.1466 29.606 62.8942 29.606H60.5235C60.2848 29.5911 60.097 29.3989 60.097 29.1642V22.6468C60.097 22.1297 60.1408 20.8358 60.0303 20.3447C59.8525 19.5162 59.3205 19.2847 58.6346 19.2847C58.0579 19.2847 57.4593 19.6727 57.2155 20.2922C56.972 20.914 56.9945 21.9487 56.9945 22.6468V29.1631C56.9945 29.4083 56.7895 29.606 56.5366 29.606H54.1654C53.9279 29.5911 53.7396 29.3989 53.7396 29.1642L53.7365 22.6468C53.7365 21.2756 53.9587 19.2588 52.2751 19.2588C50.5689 19.2588 50.6354 21.2243 50.6354 22.6468L50.634 29.1631C50.635 29.4083 50.4297 29.606 50.1764 29.606" fill="#9BA9B9"/>
<path fill-rule="evenodd" clip-rule="evenodd" d="M94.0695 18.7151C92.3181 18.7151 92.2078 21.1206 92.2078 22.6215C92.2078 24.1215 92.1858 27.3288 94.0479 27.3288C95.8873 27.3288 95.9756 24.742 95.9756 23.1643C95.9756 22.1298 95.9318 20.8884 95.6216 19.9054C95.3548 19.0514 94.8235 18.7151 94.0695 18.7151V18.7151ZM94.0479 16.2068C97.5708 16.2068 99.4767 19.2589 99.4767 23.1376C99.4767 26.8893 97.3708 29.8643 94.0479 29.8643C90.5909 29.8643 88.707 26.8114 88.707 23.0089C88.707 19.1806 90.6122 16.2068 94.0479 16.2068" fill="#9BA9B9"/>
<path fill-rule="evenodd" clip-rule="evenodd" d="M104.047 29.606H101.681C101.443 29.5911 101.255 29.3989 101.255 29.1642L101.252 16.8657C101.272 16.6417 101.469 16.465 101.707 16.465L103.909 16.4638C104.117 16.4754 104.287 16.6178 104.331 16.8083V18.6893H104.376C105.04 17.0077 105.971 16.2068 107.61 16.2068C108.674 16.2068 109.716 16.5937 110.38 17.6546C111 18.6371 111 20.2922 111 21.4823V29.2183C110.974 29.4363 110.781 29.606 110.547 29.606H108.166C107.946 29.5915 107.77 29.4278 107.743 29.2183V22.5433C107.743 21.1983 107.899 19.2319 106.258 19.2319C105.683 19.2319 105.152 19.6209 104.885 20.2151C104.553 20.965 104.509 21.715 104.509 22.5433V29.1631C104.504 29.4083 104.299 29.606 104.047 29.606" fill="#9BA9B9"/>
<path fill-rule="evenodd" clip-rule="evenodd" d="M74.81 29.5748C74.6526 29.7165 74.4273 29.726 74.2498 29.6306C73.4615 28.9694 73.3199 28.6629 72.889 28.0341C71.586 29.3732 70.6633 29.7749 68.9761 29.7749C66.9769 29.7749 65.4229 28.5304 65.4229 26.0417C65.4229 24.098 66.4661 22.7757 67.9538 22.1272C69.2418 21.5568 71.0408 21.4529 72.4173 21.2968V20.9862C72.4173 20.4162 72.4616 19.7418 72.1281 19.2495C71.8403 18.8088 71.285 18.6278 70.7958 18.6278C69.8904 18.6278 69.0859 19.0961 68.8878 20.0664C68.8476 20.2818 68.6907 20.4958 68.4756 20.5062L66.1755 20.2548C65.9807 20.2106 65.7652 20.0539 65.8214 19.7547C66.3501 16.9379 68.8706 16.0868 71.1296 16.0868C72.2836 16.0868 73.7943 16.3977 74.7048 17.279C75.859 18.3682 75.7478 19.8198 75.7478 21.4013V25.1327C75.7478 26.2551 76.2102 26.7478 76.6449 27.3527C76.7953 27.5709 76.8293 27.8294 76.636 27.9894C76.1513 28.3993 75.2899 29.1536 74.8165 29.5801L74.81 29.5748V29.5748ZM72.4173 23.7344C72.4173 24.6678 72.4393 25.4463 71.9728 26.2752C71.5953 26.9498 70.9953 27.3642 70.3291 27.3642C69.4196 27.3642 68.8868 26.6645 68.8868 25.627C68.8868 23.5876 70.7006 23.2163 72.4173 23.2163V23.7344" fill="#9BA9B9"/>
<path fill-rule="evenodd" clip-rule="evenodd" d="M43.6935 29.5748C43.5366 29.7165 43.3096 29.726 43.132 29.6306C42.3438 28.9694 42.2027 28.6629 41.7713 28.0341C40.469 29.3732 39.5458 29.7749 37.8576 29.7749C35.8592 29.7749 34.3047 28.5304 34.3047 26.0417C34.3047 24.098 35.3489 22.7757 36.8366 22.1272C38.1249 21.5568 39.9236 21.4529 41.3001 21.2968V20.9862C41.3001 20.4162 41.3448 19.7418 41.0113 19.2495C40.7228 18.8088 40.1671 18.6278 39.6793 18.6278C38.7739 18.6278 37.9684 19.0961 37.771 20.0664C37.7299 20.2818 37.5737 20.4958 37.3589 20.5062L35.0578 20.2548C34.8635 20.2106 34.6477 20.0539 34.7035 19.7547C35.2322 16.9379 37.7529 16.0868 40.0116 16.0868C41.1671 16.0868 42.6766 16.3977 43.5873 17.279C44.742 18.3682 44.6305 19.8198 44.6305 21.4013V25.1327C44.6305 26.2551 45.0932 26.7478 45.5267 27.3527C45.6779 27.5709 45.7121 27.8294 45.5193 27.9894C45.0341 28.3993 44.1722 29.1536 43.699 29.5801L43.6935 29.5748V29.5748ZM41.3001 23.7344C41.3001 24.6678 41.3218 25.4463 40.8563 26.2752C40.4791 26.9498 39.8786 27.3642 39.2133 27.3642C38.3019 27.3642 37.7694 26.6645 37.7694 25.627C37.7694 23.5876 39.5827 23.2163 41.3001 23.2163V23.7344" fill="#9BA9B9"/>
</g>
<defs>
<clipPath id="clip0">
<rect width="111" height="42" fill="white"/>
</clipPath>
</defs>
</svg>
