<svg width="14" height="10" viewBox="0 0 14 10" fill="none" xmlns="http://www.w3.org/2000/svg">
<path d="M4.8866 9.91834L0.0873348 5.36752C0.0596566 5.34129 0.037692 5.31009 0.0227039 5.27573C0.00771585 5.24137 0 5.20453 0 5.16732C0 5.13011 0.00771585 5.09326 0.0227039 5.05891C0.037692 5.02455 0.0596566 4.99335 0.0873348 4.96711L1.29893 3.8108C1.41471 3.70043 1.60183 3.70043 1.71761 3.8108L4.87718 6.8049C4.99296 6.91527 5.18143 6.91398 5.2972 6.80361L12.2787 0.0839008C12.3945 -0.0277521 12.5829 -0.0277521 12.7001 0.0826175L13.913 1.23893C14.0288 1.3493 14.0288 1.52769 13.9143 1.63806L6.30821 8.95454L6.30956 8.95582L5.30662 9.91706C5.19085 10.0274 5.00238 10.0274 4.8866 9.91834Z" fill="#04A5FF"/>
</svg>
