<svg width="109" height="57" viewBox="0 0 109 57" fill="none" xmlns="http://www.w3.org/2000/svg">
<path d="M35.6085 37.8677H30.8291V56.6342H35.6085V37.8677Z" fill="#9AABBF"/>
<path d="M24.2575 43.2447C24.0652 43.1457 22.5286 42.2427 20.2427 42.2427C17.1468 42.2427 15.0046 44.3742 15.0046 47.2482C15.0046 50.0367 17.0574 52.2582 20.2427 52.2582C22.4893 52.2582 24.0516 51.3747 24.2575 51.2622V56.2992C23.664 56.4657 22.0336 56.9667 19.899 56.9667C14.5262 56.9667 9.81348 53.2947 9.81348 47.2482C9.81348 41.6442 14.0826 37.5342 19.899 37.5342C22.1486 37.5342 23.8079 38.0757 24.2575 38.2077V43.2447Z" fill="#9AABBF"/>
<path d="M73.486 43.2105C73.2937 43.1115 71.7571 42.2085 69.4712 42.2085C66.3753 42.2085 64.2331 44.34 64.2331 47.214C64.2331 50.0025 66.2859 52.224 69.4712 52.224C71.7178 52.224 73.2801 51.3405 73.486 51.228V56.265C72.8926 56.4315 71.2621 56.9325 69.1275 56.9325C63.7547 56.9325 59.042 53.2605 59.042 47.214C59.042 41.61 63.3112 37.5 69.1275 37.5C71.3772 37.5 73.0364 38.0415 73.486 38.1735V43.2105Z" fill="#9AABBF"/>
<path d="M89.181 42.3132C86.3455 42.3132 84.2396 44.5242 84.2396 47.2482C84.2396 49.9782 86.3455 52.1877 89.181 52.1877C92.0135 52.1877 94.1253 49.9782 94.1253 47.2482C94.1253 44.5242 92.0135 42.3132 89.181 42.3132V42.3132ZM99.1893 47.2482C99.1893 52.6167 95.0064 56.9667 89.181 56.9667C83.3555 56.9667 79.1787 52.6167 79.1787 47.2482C79.1787 41.8887 83.3555 37.5342 89.181 37.5342C95.0064 37.5342 99.1893 41.8887 99.1893 47.2482Z" fill="#9AABBF"/>
<path d="M53.7336 42.1328C53.6624 42.1103 51.6504 41.5598 49.9973 41.5598C48.0822 41.5598 47.0407 42.1958 47.0407 43.0973C47.0407 44.2403 48.4456 44.6393 49.2313 44.8853L50.5499 45.3008C53.6518 46.2788 55.0658 48.3833 55.0658 50.6693C55.0658 55.3838 50.8814 56.9678 47.2238 56.9678C44.682 56.9678 42.3007 56.5043 42.066 56.4548V52.1363C42.4869 52.2413 44.4913 52.8338 46.5789 52.8338C48.9572 52.8338 50.0503 52.1453 50.0503 51.0818C50.0503 50.1308 49.1041 49.5818 47.9187 49.2128C47.6296 49.1168 47.1951 48.9818 46.8984 48.8858C44.2369 48.0518 42.0176 46.5023 42.0176 43.3958C42.0176 39.8858 44.6699 37.5293 49.0753 37.5293C51.4022 37.5293 53.5913 38.0888 53.7336 38.1263V42.1328Z" fill="#9AABBF"/>
<path d="M4.74604 12.3391C4.74604 11.0461 3.68026 9.99756 2.37378 9.99756C1.06729 9.99756 0 11.0461 0 12.3391V17.2651C0 18.5656 1.06729 19.6156 2.37378 19.6156C3.68026 19.6156 4.74604 18.5656 4.74604 17.2651V12.3391Z" fill="#A5B5C4"/>
<path d="M17.4921 9.10817C17.4921 7.81517 16.4264 6.76367 15.1199 6.76367C13.8119 6.76367 12.7461 7.81517 12.7461 9.10817V20.5007C12.7461 21.8012 13.8119 22.8497 15.1199 22.8497C16.4264 22.8497 17.4921 21.8012 17.4921 20.5007V9.10817Z" fill="#A5B5C4"/>
<path d="M30.2382 2.343C30.2382 1.05 29.1725 0 27.866 0C26.558 0 25.4922 1.05 25.4922 2.343V27.2625C25.4922 28.563 26.558 29.613 27.866 29.613C29.1725 29.613 30.2382 28.563 30.2382 27.2625V2.343Z" fill="#A5B5C4"/>
<path d="M42.9843 9.10817C42.9843 7.81517 41.9185 6.76367 40.6121 6.76367C39.3041 6.76367 38.2383 7.81517 38.2383 9.10817V20.5007C38.2383 21.8012 39.3041 22.8497 40.6121 22.8497C41.9185 22.8497 42.9843 21.8012 42.9843 20.5007V9.10817Z" fill="#A5B5C4"/>
<path d="M55.7153 12.3391C55.7153 11.0461 54.6571 9.99756 53.3566 9.99756C52.0502 9.99756 50.9844 11.0461 50.9844 12.3391V17.2651C50.9844 18.5656 52.0502 19.6156 53.3566 19.6156C54.6571 19.6156 55.7153 18.5656 55.7153 17.2651V12.3391Z" fill="#A5B5C4"/>
<path d="M56.746 12.3391C56.746 11.0461 55.6803 9.99756 54.3738 9.99756C53.0673 9.99756 52 11.0461 52 12.3391V17.2651C52 18.5656 53.0673 19.6156 54.3738 19.6156C55.6803 19.6156 56.746 18.5656 56.746 17.2651V12.3391Z" fill="#A5B5C4"/>
<path d="M69.4921 9.10817C69.4921 7.81517 68.4264 6.76367 67.1199 6.76367C65.8119 6.76367 64.7461 7.81517 64.7461 9.10817V20.5007C64.7461 21.8012 65.8119 22.8497 67.1199 22.8497C68.4264 22.8497 69.4921 21.8012 69.4921 20.5007V9.10817Z" fill="#A5B5C4"/>
<path d="M82.2382 2.343C82.2382 1.05 81.1725 0 79.866 0C78.558 0 77.4922 1.05 77.4922 2.343V27.2625C77.4922 28.563 78.558 29.613 79.866 29.613C81.1725 29.613 82.2382 28.563 82.2382 27.2625V2.343Z" fill="#A5B5C4"/>
<path d="M94.9843 9.10817C94.9843 7.81517 93.9185 6.76367 92.6121 6.76367C91.3041 6.76367 90.2383 7.81517 90.2383 9.10817V20.5007C90.2383 21.8012 91.3041 22.8497 92.6121 22.8497C93.9185 22.8497 94.9843 21.8012 94.9843 20.5007V9.10817Z" fill="#A5B5C4"/>
<path d="M107.715 12.3391C107.715 11.0461 106.657 9.99756 105.357 9.99756C104.05 9.99756 102.984 11.0461 102.984 12.3391V17.2651C102.984 18.5656 104.05 19.6156 105.357 19.6156C106.657 19.6156 107.715 18.5656 107.715 17.2651V12.3391Z" fill="#A5B5C4"/>
<path d="M106.265 54.1626V54.4566H105.421V56.6331H105.074V54.4566H104.225V54.1626H106.265Z" fill="#9AABBF"/>
<path d="M106.442 54.1626H106.986L107.732 56.1891H107.744L108.466 54.1626H108.999V56.6331H108.644V54.6081H108.631L107.875 56.6331H107.546L106.807 54.6081H106.791V56.6331H106.442V54.1626Z" fill="#9AABBF"/>
</svg>
