<svg width="19" height="15" viewBox="0 0 19 15" fill="none" xmlns="http://www.w3.org/2000/svg">
<path d="M18 10C18 10.8247 17.3466 11.8112 15.7518 12.6506C14.2031 13.4657 11.9944 14 9.5 14C7.00558 14 4.79692 13.4657 3.24823 12.6506C1.65337 11.8112 1 10.8247 1 10C1 9.17527 1.65337 8.18879 3.24823 7.34938C4.79692 6.53429 7.00558 6 9.5 6C11.9944 6 14.2031 6.53429 15.7518 7.34938C17.3466 8.18879 18 9.17527 18 10Z" stroke="#F6572C" stroke-width="2"/>
<path d="M18 10C18 10.8247 17.3466 11.8112 15.7518 12.6506C14.2031 13.4657 11.9944 14 9.5 14C7.00558 14 4.79692 13.4657 3.24823 12.6506C1.65337 11.8112 1 10.8247 1 10C1 9.17527 1.65337 8.18879 3.24823 7.34938C4.79692 6.53429 7.00558 6 9.5 6C11.9944 6 14.2031 6.53429 15.7518 7.34938C17.3466 8.18879 18 9.17527 18 10Z" stroke="#F6572C" stroke-width="2"/>
<path d="M18 10C18 10.8247 17.3466 11.8112 15.7518 12.6506C14.2031 13.4657 11.9944 14 9.5 14C7.00558 14 4.79692 13.4657 3.24823 12.6506C1.65337 11.8112 1 10.8247 1 10C1 9.17527 1.65337 8.18879 3.24823 7.34938C4.79692 6.53429 7.00558 6 9.5 6C11.9944 6 14.2031 6.53429 15.7518 7.34938C17.3466 8.18879 18 9.17527 18 10Z" stroke="#F6572C" stroke-width="2"/>
<path d="M18 5C18 5.82473 17.3466 6.81121 15.7518 7.65062C14.2031 8.46571 11.9944 9 9.5 9C7.00558 9 4.79692 8.46571 3.24823 7.65062C1.65337 6.81121 1 5.82473 1 5C1 4.17527 1.65337 3.18879 3.24823 2.34938C4.79692 1.53429 7.00558 1 9.5 1C11.9944 1 14.2031 1.53429 15.7518 2.34938C17.3466 3.18879 18 4.17527 18 5Z" stroke="#F6572C" stroke-width="2"/>
<path d="M18 5C18 5.82473 17.3466 6.81121 15.7518 7.65062C14.2031 8.46571 11.9944 9 9.5 9C7.00558 9 4.79692 8.46571 3.24823 7.65062C1.65337 6.81121 1 5.82473 1 5C1 4.17527 1.65337 3.18879 3.24823 2.34938C4.79692 1.53429 7.00558 1 9.5 1C11.9944 1 14.2031 1.53429 15.7518 2.34938C17.3466 3.18879 18 4.17527 18 5Z" stroke="#F6572C" stroke-width="2"/>
<path d="M18 5C18 5.82473 17.3466 6.81121 15.7518 7.65062C14.2031 8.46571 11.9944 9 9.5 9C7.00558 9 4.79692 8.46571 3.24823 7.65062C1.65337 6.81121 1 5.82473 1 5C1 4.17527 1.65337 3.18879 3.24823 2.34938C4.79692 1.53429 7.00558 1 9.5 1C11.9944 1 14.2031 1.53429 15.7518 2.34938C17.3466 3.18879 18 4.17527 18 5Z" stroke="#F6572C" stroke-width="2"/>
<line x1="4" y1="8" x2="4" y2="13" stroke="#F6572C" stroke-width="2"/>
<line x1="8" y1="9" x2="8" y2="14" stroke="#F6572C" stroke-width="2"/>
<line x1="13" y1="9" x2="13" y2="14" stroke="#F6572C" stroke-width="2"/>
<line x1="17" y1="7" x2="17" y2="12" stroke="#F6572C" stroke-width="2"/>
</svg>
