<svg width="159" height="20" viewBox="0 0 159 20" fill="none" xmlns="http://www.w3.org/2000/svg">
<path d="M41.7729 18.6323C40.6519 19.3714 38.8756 19.6974 37.0186 19.6974C31.1184 19.6974 27.7832 16.1449 27.7832 10.49C27.7832 5.02455 31.1184 1.19873 36.9658 1.19873C38.7141 1.19873 40.4624 1.5279 41.7481 2.44088V4.8196C40.4624 3.99978 39.0433 3.57745 36.9658 3.57745C32.758 3.57745 30.2427 6.37228 30.2427 10.49C30.2427 14.6077 32.8387 17.3498 37.1024 17.3498C38.7203 17.3645 40.318 16.9896 41.7605 16.2567L41.7729 18.6323Z" fill="#99A9B9"/>
<path d="M43.4902 12.5708C43.4902 8.4717 45.8938 5.49365 49.9929 5.49365C54.092 5.49365 56.4427 8.4717 56.4427 12.5708C56.4427 16.6699 54.064 19.7132 49.9929 19.7132C45.9217 19.7132 43.4902 16.6699 43.4902 12.5708ZM45.7851 12.5708C45.7851 15.1669 47.0707 17.5177 49.9929 17.5177C52.915 17.5177 54.1479 15.1669 54.1479 12.5708C54.1479 9.9747 52.9057 7.67983 49.996 7.67983C47.0863 7.67983 45.7913 9.9747 45.7913 12.5708H45.7851Z" fill="#99A9B9"/>
<path d="M70.7957 19.4307H68.445V11.1797C68.445 8.72023 67.4606 7.62714 65.2216 7.62714C63.0478 7.62714 61.5324 9.07424 61.5324 11.8349V19.4307H59.1816V5.76702H61.5324V8.0091C61.9507 7.23315 62.575 6.58771 63.3366 6.14389C64.0982 5.70007 64.9676 5.47509 65.8489 5.49375C68.9915 5.49375 70.7957 7.66751 70.7957 11.425V19.4307Z" fill="#99A9B9"/>
<path d="M77.3391 5.76676H80.8637V7.94053H77.3391V19.4304H75.0442V7.94053H72.8301V5.76676H75.0442V4.26376C75.0442 1.72357 76.4665 8.77884e-05 79.3917 8.77884e-05C79.9273 -0.002898 80.4605 0.0702934 80.9755 0.217464V2.39122C80.4893 2.29877 79.9953 2.25301 79.5004 2.25459C78.0533 2.25459 77.3267 3.10235 77.3267 4.33208L77.3391 5.76676Z" fill="#99A9B9"/>
<path d="M87.0558 19.5113C84.8137 19.5113 83.3945 18.4462 83.3945 15.9308V0.0561523H85.7453V15.6575C85.7453 16.8997 86.5651 17.3251 87.5775 17.3251C87.8055 17.3289 88.0337 17.3196 88.2607 17.2972V19.4026C87.8649 19.4875 87.4603 19.524 87.0558 19.5113V19.5113Z" fill="#99A9B9"/>
<path d="M90.251 5.7666H92.6017V14.0176C92.6017 16.477 93.5862 17.5701 95.8251 17.5701C97.9989 17.5701 99.5143 16.123 99.5143 13.3623V5.7666H101.871V19.4302H99.5205V17.1882C99.1023 17.9641 98.4779 18.6096 97.7163 19.0534C96.9547 19.4972 96.0853 19.7222 95.204 19.7035C92.0614 19.7035 90.2572 17.5298 90.2572 13.7754L90.251 5.7666Z" fill="#99A9B9"/>
<path d="M111.948 19.7039C106.837 19.7039 104.598 16.7538 104.598 12.5615C104.598 8.43448 106.893 5.48438 111.048 5.48438C115.255 5.48438 116.948 8.40964 116.948 12.5615V13.6267H106.976C107.306 15.9495 108.809 17.4525 112.032 17.4525C113.449 17.4512 114.856 17.201 116.187 16.7134V18.8872C115.063 19.4834 113.342 19.7039 111.948 19.7039ZM106.948 11.6299H114.572C114.435 9.08971 113.286 7.6395 110.939 7.6395C108.451 7.62398 107.194 9.23567 106.948 11.6144V11.6299Z" fill="#99A9B9"/>
<path d="M131.35 19.4307H129V11.1797C129 8.72023 128.015 7.62714 125.776 7.62714C123.603 7.62714 122.087 9.07424 122.087 11.8349V19.4307H119.736V5.76702H122.087V8.0091C122.505 7.23315 123.13 6.58771 123.891 6.14389C124.653 5.70007 125.522 5.47509 126.404 5.49375C129.546 5.49375 131.35 7.66751 131.35 11.425V19.4307Z" fill="#99A9B9"/>
<path d="M144.278 19.073C143.458 19.5109 142.201 19.6941 140.943 19.6941C136.08 19.6941 133.801 16.744 133.801 12.5517C133.801 8.42469 136.068 5.47459 140.943 5.47459C142.063 5.43785 143.176 5.66217 144.194 6.12982V8.30358C143.23 7.84925 142.173 7.62495 141.108 7.64835C137.555 7.64835 136.108 9.89043 136.108 12.5393C136.108 15.1882 137.583 17.4613 141.161 17.4613C142.217 17.4892 143.27 17.3229 144.266 16.9707L144.278 19.073Z" fill="#99A9B9"/>
<path d="M153.486 19.7039C148.375 19.7039 146.136 16.7538 146.136 12.5615C146.136 8.43448 148.431 5.48438 152.586 5.48438C156.793 5.48438 158.486 8.40964 158.486 12.5615V13.6267H148.511C148.841 15.9495 150.344 17.4525 153.567 17.4525C154.984 17.4512 156.391 17.201 157.722 16.7134V18.8872C156.601 19.4834 154.88 19.7039 153.486 19.7039ZM148.487 11.6299H156.11C155.974 9.08971 154.825 7.6395 152.477 7.6395C149.99 7.62398 148.732 9.23567 148.487 11.6144V11.6299Z" fill="#99A9B9"/>
<path d="M0.70765 15.3809C0.505801 15.7101 0.279109 16.0921 0.0865759 16.3964C0.00373471 16.5364 -0.0208781 16.7033 0.0180274 16.8612C0.056933 17.0192 0.156251 17.1556 0.294636 17.2411L4.33162 19.7254C4.40177 19.7687 4.47984 19.7976 4.56128 19.8104C4.64272 19.8232 4.7259 19.8197 4.80597 19.8001C4.88604 19.7804 4.96139 19.745 5.02764 19.6959C5.09388 19.6468 5.14969 19.5851 5.19181 19.5142C5.35329 19.244 5.56135 18.8931 5.78804 18.5174C7.38731 15.8778 8.99589 16.2008 11.8963 17.5858L15.8991 19.4893C15.9742 19.5251 16.0556 19.5454 16.1386 19.549C16.2217 19.5527 16.3046 19.5397 16.3825 19.5107C16.4604 19.4817 16.5317 19.4374 16.5921 19.3804C16.6526 19.3234 16.701 19.2549 16.7345 19.1788L18.6567 14.8313C18.722 14.682 18.726 14.5131 18.6679 14.3609C18.6098 14.2087 18.4943 14.0855 18.3462 14.0177C17.5015 13.6202 15.8215 12.8283 14.3092 12.0986C8.86857 9.45588 4.24467 9.62668 0.70765 15.3809Z" fill="#A2B2C2"/>
<path d="M18.8094 5.5153C19.0113 5.18613 19.238 4.80417 19.4305 4.49985C19.5133 4.35986 19.5379 4.19295 19.499 4.03501C19.4601 3.87706 19.3608 3.74068 19.2224 3.65519L15.1855 1.17089C15.1148 1.12329 15.0351 1.09074 14.9513 1.07527C14.8675 1.05979 14.7814 1.06173 14.6984 1.08095C14.6154 1.10018 14.5372 1.13628 14.4687 1.18701C14.4003 1.23774 14.343 1.30202 14.3004 1.37584C14.1389 1.64601 13.9309 1.99692 13.7042 2.37267C12.1049 5.01223 10.4963 4.68928 7.59592 3.30428L3.60552 1.41C3.53048 1.37429 3.44904 1.35399 3.36602 1.35032C3.28299 1.34666 3.20008 1.35969 3.12218 1.38864C3.04429 1.4176 2.973 1.4619 2.91253 1.51891C2.85207 1.57592 2.80366 1.64448 2.77017 1.72054L0.847946 6.06806C0.782669 6.21731 0.77864 6.38622 0.836727 6.53841C0.894814 6.6906 1.01037 6.81387 1.15848 6.88167C2.00314 7.27916 3.68315 8.07103 5.19547 8.80079C10.6485 11.4404 15.2724 11.2633 18.8094 5.5153Z" fill="#A1AEBE"/>
</svg>
