<svg width="112" height="29" viewBox="0 0 112 29" fill="none" xmlns="http://www.w3.org/2000/svg">
<path d="M82.3613 2.06194C82.3613 0.923354 83.3347 -0.000206026 84.5355 -0.000206026H109.609C110.81 -0.000206026 111.783 0.923354 111.783 2.06194V26.725C111.783 27.8639 110.81 28.7871 109.609 28.7871H84.5355C83.3347 28.7871 82.3613 27.8639 82.3613 26.725V2.06194V2.06194Z" fill="#E0E9F0"/>
<path fill-rule="evenodd" clip-rule="evenodd" d="M0 24.1133H12.2785V20.194H4.44344V5.24087H0V24.1133V24.1133Z" fill="#A1B1C1"/>
<path fill-rule="evenodd" clip-rule="evenodd" d="M18.4956 24.1133V11.1146H14.0518V24.1133H18.4956V24.1133ZM16.2737 9.33978C17.8234 9.33978 18.7879 8.34159 18.7879 7.09338C18.759 5.81824 17.8234 4.84814 16.3033 4.84814C14.783 4.84814 13.7891 5.81824 13.7891 7.09338C13.7891 8.34159 14.7534 9.33978 16.2447 9.33978H16.2736H16.2737Z" fill="#A1B1C1"/>
<path fill-rule="evenodd" clip-rule="evenodd" d="M20.5576 24.1133H25.0015V16.854C25.0015 16.4655 25.0304 16.0774 25.1479 15.7997C25.469 15.0238 26.2001 14.2199 27.4278 14.2199C29.036 14.2199 29.6793 15.4123 29.6793 17.1587V24.1133H34.1227V16.6598C34.1227 12.6671 31.9302 10.8092 29.0064 10.8092C26.6093 10.8092 25.5567 12.112 24.9719 12.9994H25.0016V11.1146H20.5577C20.6161 12.3343 20.5577 24.1133 20.5577 24.1133H20.5576Z" fill="#A1B1C1"/>
<path fill-rule="evenodd" clip-rule="evenodd" d="M40.3923 5.24087H35.9482V24.1133H40.3923V19.899L41.5029 18.5396L44.982 24.1133H50.4487L44.602 16.0443L49.7181 10.5545H44.3682C44.3682 10.5545 40.7139 15.4662 40.3923 16.0486V5.24087V5.24087Z" fill="#A1B1C1"/>
<path fill-rule="evenodd" clip-rule="evenodd" d="M62.333 18.6906C62.3913 18.3567 62.4792 17.7162 62.4792 16.9923C62.4792 13.632 60.7248 10.2208 56.1059 10.2208C51.165 10.2208 48.8848 14.0201 48.8848 17.4658C48.8848 21.7278 51.6621 24.3896 56.5151 24.3896C58.4447 24.3896 60.2278 24.1127 61.6897 23.5303L61.1048 20.6769C59.9063 21.0635 58.6784 21.2566 57.1584 21.2566C55.0827 21.2566 53.2703 20.4285 53.1238 18.6629L62.333 18.6898V18.6906ZM53.0949 15.7676C53.2117 14.6582 53.9719 13.0219 55.8722 13.0219C57.8889 13.0219 58.357 14.7694 58.357 15.7676H53.0949V15.7676Z" fill="#A1B1C1"/>
<path fill-rule="evenodd" clip-rule="evenodd" d="M73.4484 5.24053V11.7735H73.3901C72.7468 10.8592 71.4017 10.2491 69.6189 10.2491C66.1981 10.2491 63.1871 12.911 63.216 17.458C63.216 21.6731 65.935 24.418 69.3262 24.418C71.168 24.418 72.922 23.6413 73.7991 22.1439H73.887L74.0623 24.1129H78.0094C77.9508 23.1978 77.8919 21.6173 77.8919 20.0648V5.24053H73.4484V5.24053ZM73.4484 18.0961C73.4484 18.4285 73.4192 18.7616 73.3605 19.0385C73.0978 20.231 72.045 21.0626 70.759 21.0626C68.9171 21.0626 67.7184 19.6209 67.7184 17.3472C67.7184 15.2124 68.7419 13.4933 70.788 13.4933C72.1619 13.4933 73.1268 14.408 73.3901 15.5447C73.4485 15.7947 73.4484 16.0721 73.4484 16.3213V18.0961V18.0961Z" fill="#A1B1C1"/>
<path fill-rule="evenodd" clip-rule="evenodd" d="M91.2798 24.0977V11.0986H86.8359V24.0977H91.2798V24.0977ZM89.0579 9.32377C90.6075 9.32377 91.5721 8.32558 91.5721 7.07814C91.5432 5.80262 90.6075 4.83213 89.0873 4.83213C87.5671 4.83213 86.5732 5.80262 86.5732 7.07814C86.5732 8.32558 87.5376 9.32377 89.0289 9.32377H89.0578H89.0579Z" fill="#9DACBB"/>
<path fill-rule="evenodd" clip-rule="evenodd" d="M93.7383 24.0977H98.1821V16.8384C98.1821 16.4499 98.211 16.0618 98.3283 15.7841C98.6496 15.0078 99.3808 14.2039 100.608 14.2039C102.216 14.2039 102.86 15.396 102.86 17.1435V24.0977H107.303V16.6442C107.303 12.6514 105.111 10.7935 102.187 10.7935C99.7898 10.7935 98.7373 12.0964 98.1526 12.9838H98.1822V11.0986H93.7384C93.7967 12.3183 93.7384 24.0977 93.7384 24.0977H93.7383Z" fill="#9DACBB"/>
</svg>
