<svg width="24" height="24" viewBox="0 0 24 24" fill="none" xmlns="http://www.w3.org/2000/svg">
<path d="M9.49993 22.0001C11.5029 22.0001 13.3869 21.2201 14.8129 19.7931L21.7169 12.6971C21.8539 12.5561 21.9464 12.3779 21.9827 12.1848C22.019 11.9916 21.9975 11.792 21.921 11.6109C21.8445 11.4298 21.7163 11.2753 21.5525 11.1667C21.3887 11.0581 21.1965 11.0001 20.9999 11.0001H17.6989L21.8739 3.4861C21.9785 3.29618 22.0186 3.07744 21.9881 2.86279C21.9577 2.64813 21.8583 2.44917 21.7051 2.29581C21.5519 2.14245 21.353 2.04299 21.1383 2.01238C20.9237 1.98178 20.7049 2.02169 20.5149 2.1261L13.4049 6.0761L13.9809 3.1971C14.0216 2.99337 13.9978 2.78203 13.9128 2.59246C13.8278 2.40288 13.6859 2.24448 13.5068 2.13925C13.3277 2.03401 13.1202 1.98718 12.9133 2.00526C12.7063 2.02333 12.5101 2.10541 12.3519 2.2401L4.19593 9.1971C1.27193 12.1211 1.27193 16.8791 4.19593 19.8031C4.89084 20.5018 5.71744 21.0558 6.62787 21.4329C7.5383 21.81 8.51449 22.0028 9.49993 22.0001V22.0001ZM5.55193 10.6651L11.4539 5.6341L11.2059 6.8741L11.0199 7.8041V7.8051L10.5959 9.9241L18.4259 5.5741L15.1259 11.5141L15.1249 11.5151L14.3009 13.0001H18.6319L13.3889 18.3891C12.3499 19.4281 10.9689 20.0001 9.49993 20.0001C8.03093 20.0001 6.64893 19.4281 5.60993 18.3891C3.46693 16.2451 3.46693 12.7551 5.55193 10.6651Z" fill="#FFFCFC"/>
<path d="M9.50006 17.9998C10.2964 18.0028 11.0699 17.7334 11.6922 17.2365C12.3144 16.7395 12.7482 16.0447 12.9214 15.2674C13.0946 14.4901 12.9969 13.677 12.6446 12.9628C12.2922 12.2486 11.7063 11.6763 10.9841 11.3408C10.9891 11.3938 11.0001 11.4458 11.0001 11.4998C11.0001 11.8976 10.842 12.2792 10.5607 12.5605C10.2794 12.8418 9.89788 12.9998 9.50006 12.9998C9.10223 12.9998 8.7207 12.8418 8.4394 12.5605C8.15809 12.2792 8.00006 11.8976 8.00006 11.4998C8.00006 11.4458 8.01106 11.3938 8.01606 11.3408C7.2938 11.6763 6.7079 12.2486 6.35554 12.9628C6.00317 13.677 5.90551 14.4901 6.07873 15.2674C6.25196 16.0447 6.68568 16.7395 7.30796 17.2365C7.93023 17.7334 8.70369 18.0028 9.50006 17.9998V17.9998Z" fill="#FFFCFC"/>
</svg>
