<svg width="80" height="80" viewBox="0 0 80 80" fill="none" xmlns="http://www.w3.org/2000/svg">
<path d="M73.1662 29.0698L73.0829 28.5098L72.9962 28.5298C72.4039 25.76 71.0394 23.2144 69.0607 21.1877C67.0819 19.161 64.5697 17.7359 61.8148 17.0774C59.0599 16.419 56.1749 16.554 53.4935 17.4669C50.8122 18.3797 48.4441 20.0332 46.6632 22.2358C44.8824 24.4385 43.7616 27.1003 43.4306 29.9134C43.0996 32.7265 43.5718 35.5758 44.7926 38.1317C46.0135 40.6876 47.9331 42.8456 50.3293 44.356C52.7255 45.8664 55.5004 46.6675 58.3329 46.6665C59.0762 46.6665 59.7895 46.5532 60.4995 46.4498C60.2695 47.2232 60.0329 48.0098 59.6529 48.7165C59.2729 49.7432 58.6795 50.6332 58.0895 51.5298C57.5962 52.4998 56.7262 53.1565 56.0862 53.9865C55.4162 54.7932 54.5029 55.3298 53.7795 55.9998C53.0695 56.6998 52.1395 57.0498 51.3995 57.5432C50.6262 57.9865 49.9529 58.4765 49.2329 58.7098L47.4362 59.4498L45.8562 60.1065L47.4695 66.5698L49.4595 66.0898C50.0962 65.9298 50.8729 65.7432 51.7562 65.5198C52.6595 65.3532 53.6229 64.8965 54.6962 64.4798C55.7529 64.0032 56.9829 63.6865 58.1229 62.9232C59.2695 62.1965 60.5929 61.5898 61.7595 60.6165C62.8895 59.6132 64.2529 58.7432 65.2595 57.4698C66.3595 56.2765 67.4462 55.0232 68.2895 53.5965C69.2662 52.2365 69.9295 50.7432 70.6295 49.2665C71.2629 47.7898 71.7729 46.2798 72.1895 44.8132C72.9795 41.8732 73.3329 39.0798 73.4695 36.6898C73.5829 34.2965 73.5162 32.3065 73.3762 30.8665C73.3293 30.2651 73.2593 29.6658 73.1662 29.0698V29.0698ZM36.4995 29.0698L36.4162 28.5098L36.3295 28.5298C35.7372 25.76 34.3727 23.2144 32.394 21.1877C30.4152 19.161 27.9031 17.7359 25.1482 17.0774C22.3933 16.419 19.5082 16.554 16.8269 17.4669C14.1455 18.3797 11.7774 20.0332 9.99658 22.2358C8.21575 24.4385 7.09498 27.1003 6.76394 29.9134C6.4329 32.7265 6.90512 35.5758 8.12597 38.1317C9.34682 40.6876 11.2664 42.8456 13.6626 44.356C16.0588 45.8664 18.8337 46.6675 21.6662 46.6665C22.4095 46.6665 23.1229 46.5532 23.8329 46.4498C23.6029 47.2232 23.3662 48.0098 22.9862 48.7165C22.6062 49.7432 22.0129 50.6332 21.4229 51.5298C20.9295 52.4998 20.0595 53.1565 19.4195 53.9865C18.7495 54.7932 17.8362 55.3298 17.1129 55.9998C16.4029 56.6998 15.4729 57.0498 14.7329 57.5432C13.9595 57.9865 13.2862 58.4765 12.5662 58.7098L10.7695 59.4498C9.76619 59.8598 9.19285 60.0998 9.19285 60.0998L10.8062 66.5632L12.7962 66.0832C13.4329 65.9232 14.2095 65.7365 15.0929 65.5132C15.9962 65.3465 16.9595 64.8898 18.0329 64.4732C19.0895 63.9965 20.3195 63.6798 21.4595 62.9165C22.6062 62.1898 23.9295 61.5832 25.0962 60.6098C26.2262 59.6065 27.5895 58.7365 28.5962 57.4632C29.6962 56.2698 30.7829 55.0165 31.6262 53.5898C32.6029 52.2298 33.2662 50.7365 33.9662 49.2598C34.5995 47.7832 35.1095 46.2732 35.5262 44.8065C36.3162 41.8665 36.6695 39.0732 36.8062 36.6832C36.9195 34.2898 36.8529 32.2998 36.7129 30.8598C36.6631 30.2608 36.5919 29.6638 36.4995 29.0698V29.0698Z" fill="#EDF2F6"/>
</svg>
