<svg width="15" height="15" viewBox="0 0 15 15" fill="none" xmlns="http://www.w3.org/2000/svg">
<path d="M14.4067 5.00626L9.94357 4.35762L7.94845 0.312897C7.89396 0.202155 7.80431 0.112507 7.69357 0.0580143C7.41583 -0.0790951 7.07833 0.0351628 6.93947 0.312897L4.94435 4.35762L0.481262 5.00626C0.358215 5.02383 0.245715 5.08184 0.159582 5.16973C0.0554521 5.27676 -0.00192816 5.42075 4.94753e-05 5.57006C0.00202711 5.71937 0.0632008 5.86179 0.170129 5.96602L3.39923 9.11426L2.63634 13.5598C2.61845 13.6632 2.62989 13.7695 2.66937 13.8668C2.70885 13.964 2.77479 14.0483 2.8597 14.1099C2.94462 14.1716 3.04511 14.2082 3.1498 14.2157C3.25448 14.2232 3.35916 14.2012 3.45197 14.1522L7.44396 12.0533L11.436 14.1522C11.5449 14.2102 11.6715 14.2295 11.7928 14.2084C12.0986 14.1557 12.3043 13.8656 12.2516 13.5598L11.4887 9.11426L14.7178 5.96602C14.8057 5.87989 14.8637 5.76739 14.8813 5.64434C14.9287 5.33673 14.7143 5.05196 14.4067 5.00626V5.00626Z" fill="#FBD1D2"/>
</svg>
