<svg width="22" height="22" viewBox="0 0 22 22" fill="none" xmlns="http://www.w3.org/2000/svg">
<path d="M19.1767 2.1855C18.1468 1.95197 17.0941 1.83391 16.038 1.8335C13.6684 1.8335 11.7636 2.48708 10.5279 3.72275C9.55181 4.69824 8.58165 5.6797 7.61753 6.66708C6.5047 6.5415 3.88028 6.481 2.10195 8.26025C2.01642 8.34512 1.94853 8.44608 1.90221 8.55731C1.85588 8.66854 1.83203 8.78784 1.83203 8.90833C1.83203 9.02882 1.85588 9.14812 1.90221 9.25935C1.94853 9.37058 2.01642 9.47154 2.10195 9.55641L12.4722 19.9267C12.5571 20.0121 12.6581 20.0799 12.7693 20.1261C12.8806 20.1724 12.9998 20.1962 13.1203 20.1962C13.2407 20.1962 13.36 20.1724 13.4712 20.1261C13.5825 20.0799 13.6834 20.0121 13.7684 19.9267C15.5595 18.1364 15.5045 15.5138 15.3881 14.4175L18.3068 11.4997C21.2319 8.57466 19.9018 3.08291 19.844 2.851C19.8035 2.69004 19.72 2.54312 19.6024 2.42592C19.4849 2.30871 19.3378 2.22561 19.1767 2.1855V2.1855ZM17.0106 10.2045L13.7693 13.4449C13.6626 13.5516 13.584 13.683 13.5403 13.8274C13.4966 13.9718 13.4893 14.1248 13.519 14.2727C13.5236 14.2956 13.8921 16.3278 13.0277 17.888L4.14061 9.00183C5.69895 8.142 7.7532 8.53983 7.75961 8.53983C8.06211 8.604 8.38661 8.50683 8.6057 8.28041C8.60845 8.27766 9.89453 6.9485 11.825 5.018C12.9415 3.9015 14.7318 3.66683 16.038 3.66683C16.9061 3.66683 17.6816 3.76858 18.1757 3.85291C18.3994 5.16466 18.7486 8.46558 17.0106 10.2045V10.2045Z" fill="white"/>
<path d="M14.4173 9.44548C15.4298 9.44548 16.2507 8.62466 16.2507 7.61214C16.2507 6.59962 15.4298 5.77881 14.4173 5.77881C13.4048 5.77881 12.584 6.59962 12.584 7.61214C12.584 8.62466 13.4048 9.44548 14.4173 9.44548Z" fill="white"/>
<path d="M4.58333 14.6665C2.75 15.5832 2.75 19.2498 2.75 19.2498C2.75 19.2498 5.5 19.2498 7.33333 17.4165L4.58333 14.6665Z" fill="white"/>
</svg>
